# xmcd
#
# Track frame offsets:
#	150
#	22300
#	47125
#	64050
#	82125
#	102980
#	125400
#	141950
#	176700
#	200125
#	215625
#	236470
#
# Disc length: 3782 seconds
#
# Revision: 1
# Processed by: cddbd v1.5.1PL0 Copyright (c) Steve Scherf et al.
# Submitted via: CDex 1.50Beta5
#
DISCID=bd0ec40c
DTITLE=泉山中三 - 安らぎのクラシック
DYEAR=1900
DGENRE=バイオミュ-ジック
TTITLE0=ドヴォルザ-ク :弦楽セレナーデ〜第
TTITLE1=モ-ツアルト
TTITLE2=プロコエフィエフ ロミオとジュリエット
TTITLE3=ヘンデル メヌエット
TTITLE4=バッハ;G線上のアリア
TTITLE5=グリ-グ;ソルグエイグの歌
TTITLE6=ドビッシ- 小舟にて
TTITLE7=モ-ツアルト フルートとハープのための協奏曲
TTITLE8=ロドリ-ゴ ある貴紳のため幻想曲
TTITLE9=フォ-レ ピエ イエスズ
TTITLE10=バッハ 人よ汝の罪を悲しめ
TTITLE11=マ-ラ- 第5番 アダージェット
EXTD=
EXTT0=
EXTT1=
EXTT2=
EXTT3=
EXTT4=
EXTT5=
EXTT6=
EXTT7=
EXTT8=
EXTT9=
EXTT10=
EXTT11=
PLAYORDER=
